<?xml version="1.0" encoding="utf-8"?>
<!-- Generator: Adobe Illustrator 16.0.0, SVG Export Plug-In . SVG Version: 6.00 Build 0)  -->
<!DOCTYPE svg PUBLIC "-//W3C//DTD SVG 1.1//EN" "http://www.w3.org/Graphics/SVG/1.1/DTD/svg11.dtd">
<svg xmlns="http://www.w3.org/2000/svg" viewBox="0 0 800 600" class="polylion">
<polyline fill="#CB7E5B" points="134.25,144.377 134.25,228.125 195,166.727 134.25,143.875 "/>
<polygon fill="#9E6048" points="165.073,197 134.375,227.629 170.125,283.25 "/>
<polygon fill="#885A3F" points="165.073,197 169.662,283.726 238.75,295.875 "/>
<polygon fill="#D2AD90" points="165.073,197 195,166.625 211.069,258.728 "/>
<polygon fill="#B89577" points="211.069,258.728 262,248.667 195,167 "/>
<polygon fill="#A78C6E" points="261.276,248.667 275.167,194.667 194,166.625 "/>
<polygon fill="#C09C7F" points="211.069,258.728 238.75,295.875 261.943,248.667 "/>
<polygon fill="#976746" points="169.662,283.726 169.662,323.319 238.75,295.875 "/>
<polygon fill="#563929" points="169.662,323.319 179.667,342.319 192.592,314.211 "/>
<polygon fill="#8C654B" points="192.592,314.211 166.167,371.986 255.333,325.152 "/>
<polygon fill="#A47B5B" points="192.592,314.211 238.75,295.875 255.333,325.152 "/>
<polygon fill="#6C503B" points="255.333,325.152 315.667,368.145 190.12,359.405 "/>
<polygon fill="#7D5B45" points="190.12,359.405 155.833,418.478 248.169,363.446 "/>
<polygon fill="#664637" points="199.366,392.532 248.169,363.446 256.167,434.978 "/>
<polygon fill="#966D50" points="199.366,392.532 190.12,469.819 256.167,434.978 "/>
<polygon fill="#744F3C" points="248.169,363.446 321.834,465.495 256.167,434.978 "/>
<polygon fill="#83543E" points="256.167,434.978 264.333,524.498 321.834,465.495 "/>
<polygon fill="#654735" points="315.667,368.145 321.834,465.495 248.169,363.446 "/>
<polygon fill="#937A5C" points="238.75,295.875 295.833,292.995 261.943,248.667 "/>
<polygon fill="#A98B67" points="238.75,295.875 255.333,325.152 295.833,292.995 "/>
<polygon fill="#816950" points="295.833,292.995 315.667,368.145 255.333,325.152 "/>
<polygon fill="#675042" points="295.833,292.995 328,315.5 315.667,368.145 "/>
<polygon fill="#A77B56" points="315.667,368.145 321.834,465.495 420,335.503 "/>
<polygon fill="#845742" points="368.33,403.925 321.834,465.495 420,479.014 "/>
<polygon fill="#614638" points="363.5,576.355 321.834,465.495 420,479.014 "/>
<polygon fill="#8D695A" points="420,479.014 449.668,420.351 489.834,511.184 "/>
<polygon fill="#785241" points="368.33,403.925 420,479.014 449.668,420.351 "/>
<polygon fill="#CDAD86" points="420,335.503 368.33,403.925 449.668,420.351 "/>
<polygon fill="#917359" points="315.667,368.145 420,335.503 328,315.5 "/>
<polygon fill="#D1B698" points="420,335.503 461.668,383.49 449.668,420.351 "/>
<polygon fill="#D7C2A5" points="420.539,336.124 505.501,360.49 461.668,383.49 "/>
<polygon fill="#9B8264" points="328,315.5 421.501,291.164 420,335.503 "/>
<polygon fill="#A0866C" points="328,315.5 374.75,284.832 421.501,291.164 "/>
<polygon fill="#947A61" points="327.583,315.5 336.589,277.769 375.249,284.917 "/>
<polygon fill="#735D4F" points="328.052,315.781 342.834,250 296,292.889 "/>
<polygon fill="#A48A6F" points="295.833,292.995 355.167,238.674 261.943,248.667 "/>
<polygon fill="#C8AD80" points="260.776,249.984 348.667,206.801 274.854,194.667 "/>
<polygon fill="#AD936E" points="261.943,248.667 348.667,206.512 355.167,238.674 "/>
<polygon fill="#D8C19B" points="275.833,194.876 311.167,176.348 348.667,206.856 "/>
<polygon fill="#C5B198" points="311.167,176.482 335.834,157.018 348.667,206.856 "/>
<polygon fill="#A8846A" points="335.833,157.49 331.385,99.354 310.167,176.978 "/>
<polygon fill="#DABE97" points="331.32,99.354 335.896,157.185 361,132.812 "/>
<polygon fill="#A0886E" points="348.167,206.512 354.857,238.674 377.5,218.684 "/>
<polygon fill="#E6D2B9" points="342.834,250.185 336.619,277.657 360,252.519 "/>
<polygon fill="#A88566" points="342.834,250.185 356.955,236.784 360,252.519 "/>
<polygon fill="#CABB8A" points="360,252.519 370.834,237.684 356.955,236.784 "/>
<polygon fill="#E2D4B9" points="360,252.519 370.834,264.851 336.619,277.657 "/>
<polygon fill="#D4C0A6" points="370.334,264.851 375.834,285.083 336.119,277.818 "/>
<polygon fill="#CCAF8D" points="420,335.947 460.667,285.667 505.501,361.157 "/>
<polygon fill="#CAB598" points="421.501,291.164 460.667,285.667 420,335.947 "/>
<polygon fill="#D9BF9A" points="460.667,285.667 508.833,291.164 505.501,361.157 "/>
<polygon fill="#DED1C0" points="508.833,291.164 530.333,315.781 505.501,361.157 "/>
<polygon fill="#E3D6C4" points="508.833,291.164 523.167,278.335 530.333,315.781 "/>
<polygon fill="#D3B994" points="460.667,285.667 481.667,267.506 508.833,291.164 "/>
<polygon fill="#956851" points="481.667,267.506 508.833,272.271 508.833,291.164 "/>
<polygon fill="#C4B1A3" points="508.833,272.271 523.167,278.335 508.833,291.164 "/>
<polygon fill="#BF9077" points="481.667,267.506 511,254.841 508.833,272.271 "/>
<polygon fill="#CE9A7A" points="511,254.841 523.167,278.335 508.833,272.271 "/>
<polygon fill="#D9C8B0" points="468.374,234.341 480.836,267.672 512.166,254.943 "/>
<polygon fill="#DBBE95" points="468.247,234.341 450.418,257.029 481.667,268.287 "/>
<polygon fill="#E8D9C3" points="421.501,291.164 440.334,264.851 460,285.667 "/>
<polygon fill="#C4A27C" points="423.667,247.674 460.104,286.159 481.834,267.763 "/>
<polygon fill="#DBCAB5" points="348.171,206.512 366.756,166.998 386.833,206.512 "/>
<polygon fill="#D9CAB3" points="348.167,206.512 386.833,206.512 377.5,218.684 "/>
<polygon fill="#C5B9A1" points="361,132.812 335.896,157.185 366.756,166.998 348.167,206.512 335.896,157.018 "/>
<polygon fill="#E4D9C5" points="366.756,167.116 410.167,165.161 386.833,206.512 "/>
<polygon fill="#CFC4B0" points="386.833,206.512 428.917,201.988 410.167,165.161 "/>
<polygon fill="#E6DFCF" points="410.167,165.161 460.918,202.154 428.917,201.988 "/>
<polygon fill="#D0C7B5" points="460.918,202.154 454.418,217.234 451.835,202.154 "/>
<polygon fill="#8A8277" points="460.864,202.142 454.473,217.269 464.021,212.563 "/>
<polygon fill="#B6A684" points="451.795,202.123 443.249,208.299 454.418,217.234 "/>
<polygon fill="#564C40" points="463.956,212.598 466.918,221.735 458.753,215.055 "/>
<polygon fill="#DAD3C1" points="428.917,201.988 423.667,222.233 451.835,202.154 "/>
<polygon fill="#EDE2D0" points="443.249,208.313 454.418,217.234 423.667,222.233 "/>
<polygon fill="#B4AA9E" points="466.918,221.735 454.418,217.234 458.753,215.055 "/>
<polygon fill="#E5D9BE" points="386.833,206.512 397.918,227.558 428.917,201.988 "/>
<polygon fill="#E4DAC1" points="397.918,227.558 428.917,201.988 423.667,222.233 "/>
<polygon fill="#4F483C" points="466.918,221.535 468.282,234.341 454.136,217.009 "/>
<polygon fill="#DDD1BC" points="423.972,222.017 411.5,243.139 450.666,257.223 "/>
<polygon fill="#E8DDCB" points="423.972,221.88 450.47,256.963 454.418,217.2 "/>
<polygon fill="#E8DDCB" points="450.418,257.133 454.418,217.2 468.282,234.341 "/>
<polygon fill="#AF9877" points="377.5,218.684 397.918,227.558 386.833,206.512 "/>
<polygon fill="#C7C495" points="360,252.519 378.083,251.314 370.834,237.684 "/>
<polygon fill="#9B7E55" points="370.834,237.684 369.961,225.34 356.955,236.784 "/>
<polygon fill="#8B7160" points="369.961,225.34 386.249,230.054 370.834,237.684 "/>
<polygon fill="#3E2416" points="377.5,218.684 386.249,230.054 369.961,225.34 "/>
<polygon fill="#3E2416" points="377.5,218.684 397.918,227.558 386.249,230.054 "/>
<polygon fill="#D1C0AB" points="397.918,227.558 411.5,243.139 423.972,221.88 "/>
<polygon fill="#E3DDB0" points="360,252.519 378.083,251.314 370.334,264.851 "/>
<polygon fill="#414141" points="370.834,237.654 387.376,245.088 377.94,251.314 "/>
<polygon fill="#393724" points="387.376,245.088 388.416,257.133 377.94,251.314 "/>
<polygon fill="#DBD7D1" points="386.217,229.82 387.376,245.088 370.356,237.768 "/>
<polygon fill="#D3CE92" points="388.416,257.133 391.999,267.63 398.916,259.88 "/>
<polygon fill="#DED2AB" points="370.334,264.851 375.834,285.083 391.999,267.63 "/>
<polygon fill="#D8D6AD" points="377.94,251.314 370.334,264.851 388.416,257.133 "/>
<polygon fill="#E5E3BD" points="388.416,257.133 370.334,264.851 391.999,267.63 "/>
<polygon fill="#B19683" points="386.217,229.82 398.916,239.963 387.376,245.088 "/>
<polygon fill="#604537" points="398.916,239.963 397.918,227.558 386.454,230.01 "/>
<polygon fill="#462118" points="397.918,227.558 398.916,239.963 411.228,242.826 "/>
<polygon fill="#CCB97A" points="387.376,245.088 388.416,257.133 398.916,239.963 "/>
<polygon fill="#D0BC87" points="398.916,259.88 398.916,239.963 388.416,257.133 "/>
<polygon fill="#DDCCB0" points="391.999,267.63 421.501,291.164 375.834,285.083 "/>
<polygon fill="#ECE0C8" points="391.999,267.63 415.916,264.851 421.501,291.164 "/>
<polygon fill="#E5D5B8" points="415.916,264.851 440.334,264.851 421.501,291.164 "/>
<polygon fill="#BCA47D" points="398.916,259.88 415.916,264.851 391.999,267.63 "/>
<polygon fill="#C3A17F" points="415.916,264.851 415.916,253.967 440.334,264.851 "/>
<polygon fill="#9D8073" points="415.916,253.967 398.916,259.88 415.916,264.851 "/>
<polygon fill="#966954" points="415.916,253.967 423.749,247.674 440.334,264.851 "/>
<polygon fill="#30160E" points="398.916,239.963 409.317,256.263 398.916,259.88 "/>
<polygon fill="#503323" points="398.916,239.963 411.228,242.826 409.317,256.263 "/>
<polygon fill="#6D513F" points="415.916,253.967 411.228,242.826 423.749,247.674 "/>
<polygon fill="#4E3121" points="411.228,242.826 409.317,256.263 415.916,253.967 411.5,242.932 "/>
<polygon fill="#D5C4AA" points="335.896,157.185 361,132.812 366.756,166.998 "/>
</svg>
